<svg xmlns="http://www.w3.org/2000/svg" viewBox="0 0 100 100">
  <defs>
    <linearGradient id="heartGrad" x1="0%" y1="0%" x2="100%" y2="100%">
      <stop offset="0%" style="stop-color:#f97316"/>
      <stop offset="100%" style="stop-color:#fb923c"/>
    </linearGradient>
  </defs>
  <path fill="url(#heartGrad)" d="M50 88.5c-1.5 0-3-.5-4.2-1.5C41.7 83.5 15 62 15 38.5c0-13.5 10.5-24 24-24 6.5 0 12.5 3 16 7.5 3.5-4.5 9.5-7.5 16-7.5 13.5 0 24 10.5 24 24 0 23.5-26.7 45-30.8 48.5-1.2 1-2.7 1.5-4.2 1.5z"/>
  <circle cx="50" cy="42" r="12" fill="white" opacity="0.9"/>
  <path fill="#f97316" d="M50 36c-3.3 0-6 2.7-6 6s2.7 6 6 6 6-2.7 6-6-2.7-6-6-6zm0 9c-1.7 0-3-1.3-3-3s1.3-3 3-3 3 1.3 3 3-1.3 3-3 3z"/>
</svg>
